<svg xmlns="http://www.w3.org/2000/svg" xmlns:xlink="http://www.w3.org/1999/xlink" width="500" zoomAndPan="magnify" viewBox="0 0 375 374.999991" height="500" preserveAspectRatio="xMidYMid meet" version="1.0"><defs><g/><clipPath id="a442ff2474"><path d="M 199 132 L 307 132 L 307 223 L 199 223 Z M 199 132 " clip-rule="nonzero"/></clipPath><clipPath id="9005975e26"><path d="M 249.636719 100.855469 L 364.71875 155.742188 L 304.339844 282.332031 L 189.257812 227.445312 Z M 249.636719 100.855469 " clip-rule="nonzero"/></clipPath><clipPath id="4ebff89f19"><path d="M 249.636719 100.855469 L 364.71875 155.742188 L 304.339844 282.332031 L 189.257812 227.445312 Z M 249.636719 100.855469 " clip-rule="nonzero"/></clipPath><clipPath id="2076fda782"><path d="M 196 150 L 329 150 L 329 232 L 196 232 Z M 196 150 " clip-rule="nonzero"/></clipPath><clipPath id="bc0d39036b"><path d="M 249.636719 100.855469 L 364.71875 155.742188 L 304.339844 282.332031 L 189.257812 227.445312 Z M 249.636719 100.855469 " clip-rule="nonzero"/></clipPath><clipPath id="29c52afb77"><path d="M 249.636719 100.855469 L 364.71875 155.742188 L 304.339844 282.332031 L 189.257812 227.445312 Z M 249.636719 100.855469 " clip-rule="nonzero"/></clipPath><clipPath id="3756a93d25"><path d="M 203 114 L 286 114 L 286 213 L 203 213 Z M 203 114 " clip-rule="nonzero"/></clipPath><clipPath id="754e508c6e"><path d="M 249.636719 100.855469 L 364.71875 155.742188 L 304.339844 282.332031 L 189.257812 227.445312 Z M 249.636719 100.855469 " clip-rule="nonzero"/></clipPath><clipPath id="83ad19bfcf"><path d="M 249.636719 100.855469 L 364.71875 155.742188 L 304.339844 282.332031 L 189.257812 227.445312 Z M 249.636719 100.855469 " clip-rule="nonzero"/></clipPath><clipPath id="3fe4bae1bf"><path d="M 67 132 L 175 132 L 175 224 L 67 224 Z M 67 132 " clip-rule="nonzero"/></clipPath><clipPath id="af3196c3c1"><path d="M 10.109375 155.441406 L 125.429688 101.054688 L 185.253906 227.90625 L 69.9375 282.292969 Z M 10.109375 155.441406 " clip-rule="nonzero"/></clipPath><clipPath id="df5f5ed3c3"><path d="M 125.597656 100.976562 L 10.28125 155.363281 L 70.105469 282.210938 L 185.425781 227.824219 Z M 125.597656 100.976562 " clip-rule="nonzero"/></clipPath><clipPath id="36cc192fef"><path d="M 46 150 L 178 150 L 178 232 L 46 232 Z M 46 150 " clip-rule="nonzero"/></clipPath><clipPath id="8c5aa897a3"><path d="M 10.109375 155.441406 L 125.429688 101.054688 L 185.253906 227.90625 L 69.9375 282.292969 Z M 10.109375 155.441406 " clip-rule="nonzero"/></clipPath><clipPath id="016c9fa6b1"><path d="M 125.597656 100.976562 L 10.28125 155.363281 L 70.105469 282.210938 L 185.425781 227.824219 Z M 125.597656 100.976562 " clip-rule="nonzero"/></clipPath><clipPath id="77e7a816e7"><path d="M 89 114 L 172 114 L 172 214 L 89 214 Z M 89 114 " clip-rule="nonzero"/></clipPath><clipPath id="37810b0165"><path d="M 10.109375 155.441406 L 125.429688 101.054688 L 185.253906 227.90625 L 69.9375 282.292969 Z M 10.109375 155.441406 " clip-rule="nonzero"/></clipPath><clipPath id="0ec87ce431"><path d="M 125.597656 100.976562 L 10.28125 155.363281 L 70.105469 282.210938 L 185.425781 227.824219 Z M 125.597656 100.976562 " clip-rule="nonzero"/></clipPath><clipPath id="77b922efbe"><path d="M 127 58.554688 L 223 58.554688 L 223 91 L 127 91 Z M 127 58.554688 " clip-rule="nonzero"/></clipPath><clipPath id="b56d93a57c"><path d="M 147 88 L 226.1875 88 L 226.1875 204.804688 L 147 204.804688 Z M 147 88 " clip-rule="nonzero"/></clipPath></defs><g clip-path="url(#a442ff2474)"><g clip-path="url(#9005975e26)"><g clip-path="url(#4ebff89f19)"><path fill="#ffc947" d="M 306.949219 213.136719 L 300.003906 132.164062 C 300.003906 132.164062 291.871094 133.140625 282.257812 136.132812 L 282.953125 144.242188 C 285.546875 144.113281 288.285156 144.175781 291.160156 144.484375 L 297.148438 203.160156 C 297.148438 203.160156 230.628906 195.5 199.898438 222.746094 C 199.898438 222.746094 238.300781 199.699219 306.949219 213.136719 " fill-opacity="1" fill-rule="nonzero"/></g></g></g><g clip-path="url(#2076fda782)"><g clip-path="url(#bc0d39036b)"><g clip-path="url(#29c52afb77)"><path fill="#ffdb4f" d="M 321.667969 150.8125 C 321.667969 150.8125 313.539062 151.789062 303.921875 154.78125 L 304.617188 162.890625 C 307.210938 162.761719 309.949219 162.824219 312.824219 163.132812 L 318.8125 221.808594 C 318.8125 221.808594 240 204.078125 196.667969 231.273438 C 196.667969 231.273438 244.4375 214.539062 328.613281 231.785156 L 321.667969 150.8125 " fill-opacity="1" fill-rule="nonzero"/></g></g></g><g clip-path="url(#3756a93d25)"><g clip-path="url(#754e508c6e)"><g clip-path="url(#83ad19bfcf)"><path fill="#ebd469" d="M 203.703125 212.695312 C 203.703125 212.695312 236.628906 186.511719 285.394531 195.574219 L 278.449219 114.601562 C 278.449219 114.601562 241.789062 119.003906 232.066406 137.78125 C 232.066406 137.78125 246.515625 124.449219 269.605469 126.921875 L 275.59375 185.597656 C 275.59375 185.597656 228.433594 183.933594 203.703125 212.695312 " fill-opacity="1" fill-rule="nonzero"/></g></g></g><g clip-path="url(#3fe4bae1bf)"><g clip-path="url(#af3196c3c1)"><g clip-path="url(#df5f5ed3c3)"><path fill="#ffc947" d="M 67.800781 213.007812 L 75.097656 132.0625 C 75.097656 132.0625 83.222656 133.078125 92.824219 136.113281 L 92.09375 144.214844 C 89.5 144.078125 86.761719 144.128906 83.886719 144.421875 L 77.644531 203.070312 C 77.644531 203.070312 144.195312 195.699219 174.804688 223.082031 C 174.804688 223.082031 136.503906 199.867188 67.800781 213.007812 " fill-opacity="1" fill-rule="nonzero"/></g></g></g><g clip-path="url(#36cc192fef)"><g clip-path="url(#8c5aa897a3)"><g clip-path="url(#016c9fa6b1)"><path fill="#ffdb4f" d="M 53.351562 150.617188 C 53.351562 150.617188 61.476562 151.632812 71.078125 154.667969 L 70.347656 162.769531 C 67.753906 162.632812 65.015625 162.679688 62.140625 162.976562 L 55.898438 221.625 C 55.898438 221.625 134.789062 204.238281 177.996094 231.621094 C 177.996094 231.621094 130.300781 214.683594 46.050781 231.558594 L 53.351562 150.617188 " fill-opacity="1" fill-rule="nonzero"/></g></g></g><g clip-path="url(#77e7a816e7)"><g clip-path="url(#37810b0165)"><g clip-path="url(#0ec87ce431)"><path fill="#ebd469" d="M 171.042969 213.015625 C 171.042969 213.015625 138.230469 186.6875 89.429688 195.539062 L 96.726562 114.597656 C 96.726562 114.597656 133.367188 119.15625 143.007812 137.976562 C 143.007812 137.976562 128.617188 124.582031 105.515625 126.953125 L 99.273438 185.601562 C 99.273438 185.601562 146.441406 184.144531 171.042969 213.015625 " fill-opacity="1" fill-rule="nonzero"/></g></g></g><g clip-path="url(#77b922efbe)"><path fill="#ffc947" d="M 222.652344 74.9375 C 222.550781 76.53125 221.4375 77.886719 219.933594 78.429688 L 188.441406 89.839844 C 188.003906 89.996094 187.550781 90.074219 187.09375 90.074219 C 186.636719 90.074219 186.179688 89.996094 185.75 89.839844 L 156.441406 79.226562 C 155.515625 78.886719 155.066406 77.824219 155.496094 76.914062 C 155.875 76.117188 156.832031 75.777344 157.660156 76.078125 L 186.894531 86.667969 C 187.023438 86.714844 187.164062 86.714844 187.289062 86.667969 L 218.90625 75.214844 C 219.21875 75.101562 219.285156 74.859375 219.285156 74.675781 C 219.289062 74.523438 219.242188 74.253906 218.914062 74.128906 L 187.300781 62.058594 C 187.167969 62.007812 187.019531 62.007812 186.886719 62.058594 L 165.027344 70.402344 C 165.804688 70.679688 166.601562 70.984375 167.414062 71.3125 C 179.015625 75.980469 186.960938 72.054688 189.820312 70.171875 C 190.097656 69.984375 190.421875 69.894531 190.738281 69.894531 C 191.207031 69.894531 191.667969 70.089844 192 70.460938 C 192.683594 71.234375 192.519531 72.429688 191.65625 72.992188 C 188.175781 75.273438 179.101562 79.652344 166.15625 74.441406 C 148.019531 67.140625 140.886719 73.402344 138.625 76.519531 L 140.699219 77.78125 L 135.605469 85.992188 C 134.316406 88.070312 131.617188 88.761719 129.484375 87.5625 C 127.230469 86.292969 126.480469 83.40625 127.832031 81.199219 L 132.84375 73.019531 L 135.773438 74.796875 C 138.210938 71.425781 144.921875 65.222656 159.730469 68.816406 L 185.683594 58.90625 C 186.59375 58.558594 187.59375 58.558594 188.503906 58.90625 L 220.117188 70.980469 C 221.75 71.601562 222.765625 73.171875 222.652344 74.9375 Z M 222.652344 74.9375 " fill-opacity="1" fill-rule="nonzero"/></g><g clip-path="url(#b56d93a57c)"><path fill="#ffc947" d="M 202.246094 88.707031 L 188.441406 93.707031 C 188.003906 93.863281 187.550781 93.941406 187.09375 93.941406 C 186.636719 93.941406 186.183594 93.863281 185.75 93.707031 L 171.457031 88.53125 C 165.023438 110.792969 147.394531 128.773438 147.394531 128.773438 C 152.480469 134.738281 157.46875 142.367188 162.136719 150.847656 L 176.292969 181.382812 C 178.933594 188.15625 183.160156 198.546875 185.117188 204.902344 L 184.675781 172.511719 C 184.894531 167.710938 184.902344 143.527344 184.78125 132.917969 C 183.242188 132.132812 182.183594 130.535156 182.183594 128.691406 C 182.183594 126.101562 184.253906 124.003906 186.824219 123.949219 C 189.398438 124.003906 191.46875 126.101562 191.46875 128.691406 C 191.46875 130.535156 190.410156 132.132812 188.871094 132.917969 C 188.75 143.527344 188.757812 167.710938 188.976562 172.511719 L 188.535156 204.902344 C 190.492188 198.546875 194.71875 188.15625 197.359375 181.382812 L 211.515625 150.847656 C 216.183594 142.367188 221.171875 134.738281 226.257812 128.773438 C 226.257812 128.777344 208.722656 110.886719 202.246094 88.707031 Z M 202.246094 88.707031 " fill-opacity="1" fill-rule="nonzero"/></g><g fill="#ffc947" fill-opacity="1"><g transform="translate(88.562311, 268.026517)"><g><path d="M 10 0.140625 C 8.34375 0.140625 6.847656 -0.222656 5.515625 -0.953125 C 4.179688 -1.691406 3.132812 -2.707031 2.375 -4 C 1.625 -5.300781 1.25 -6.757812 1.25 -8.375 C 1.25 -9.976562 1.625 -11.429688 2.375 -12.734375 C 3.132812 -14.035156 4.179688 -15.050781 5.515625 -15.78125 C 6.859375 -16.519531 8.359375 -16.890625 10.015625 -16.890625 C 11.265625 -16.890625 12.414062 -16.679688 13.46875 -16.265625 C 14.519531 -15.847656 15.410156 -15.242188 16.140625 -14.453125 L 15.015625 -13.328125 C 13.710938 -14.648438 12.066406 -15.3125 10.078125 -15.3125 C 8.742188 -15.3125 7.535156 -15.003906 6.453125 -14.390625 C 5.367188 -13.785156 4.519531 -12.957031 3.90625 -11.90625 C 3.289062 -10.851562 2.984375 -9.675781 2.984375 -8.375 C 2.984375 -7.0625 3.289062 -5.878906 3.90625 -4.828125 C 4.519531 -3.773438 5.367188 -2.945312 6.453125 -2.34375 C 7.535156 -1.738281 8.742188 -1.4375 10.078125 -1.4375 C 12.078125 -1.4375 13.722656 -2.101562 15.015625 -3.4375 L 16.140625 -2.328125 C 15.410156 -1.523438 14.515625 -0.910156 13.453125 -0.484375 C 12.390625 -0.0664062 11.238281 0.140625 10 0.140625 Z M 10 0.140625 "/></g></g></g><g fill="#ffc947" fill-opacity="1"><g transform="translate(109.588997, 268.026517)"><g><path d="M 14.5625 -1.53125 L 14.5625 0 L 2.734375 0 L 2.734375 -16.75 L 14.203125 -16.75 L 14.203125 -15.21875 L 4.5 -15.21875 L 4.5 -9.25 L 13.15625 -9.25 L 13.15625 -7.75 L 4.5 -7.75 L 4.5 -1.53125 Z M 14.5625 -1.53125 "/></g></g></g><g fill="#ffc947" fill-opacity="1"><g transform="translate(129.419683, 268.026517)"><g><path d="M 14.15625 0 L 10.328125 -5.375 C 9.898438 -5.332031 9.457031 -5.3125 9 -5.3125 L 4.5 -5.3125 L 4.5 0 L 2.734375 0 L 2.734375 -16.75 L 9 -16.75 C 11.132812 -16.75 12.804688 -16.238281 14.015625 -15.21875 C 15.234375 -14.195312 15.84375 -12.789062 15.84375 -11 C 15.84375 -9.695312 15.507812 -8.59375 14.84375 -7.6875 C 14.175781 -6.789062 13.234375 -6.140625 12.015625 -5.734375 L 16.09375 0 Z M 8.953125 -6.8125 C 10.609375 -6.8125 11.875 -7.175781 12.75 -7.90625 C 13.625 -8.644531 14.0625 -9.675781 14.0625 -11 C 14.0625 -12.351562 13.625 -13.394531 12.75 -14.125 C 11.875 -14.851562 10.609375 -15.21875 8.953125 -15.21875 L 4.5 -15.21875 L 4.5 -6.8125 Z M 8.953125 -6.8125 "/></g></g></g><g fill="#ffc947" fill-opacity="1"><g transform="translate(150.542035, 268.026517)"><g><path d="M 5.984375 -15.21875 L 0.09375 -15.21875 L 0.09375 -16.75 L 13.640625 -16.75 L 13.640625 -15.21875 L 7.75 -15.21875 L 7.75 0 L 5.984375 0 Z M 5.984375 -15.21875 "/></g></g></g><g fill="#ffc947" fill-opacity="1"><g transform="translate(168.100332, 268.026517)"><g><path d="M 2.734375 -16.75 L 4.5 -16.75 L 4.5 0 L 2.734375 0 Z M 2.734375 -16.75 "/></g></g></g><g fill="#ffc947" fill-opacity="1"><g transform="translate(179.152408, 268.026517)"><g><path d="M 4.5 -15.21875 L 4.5 -8.640625 L 13.15625 -8.640625 L 13.15625 -7.109375 L 4.5 -7.109375 L 4.5 0 L 2.734375 0 L 2.734375 -16.75 L 14.203125 -16.75 L 14.203125 -15.21875 Z M 4.5 -15.21875 "/></g></g></g><g fill="#ffc947" fill-opacity="1"><g transform="translate(198.121967, 268.026517)"><g><path d="M 8.46875 -5.796875 L 8.46875 0 L 6.71875 0 L 6.71875 -5.796875 L 0.03125 -16.75 L 1.90625 -16.75 L 7.65625 -7.34375 L 13.390625 -16.75 L 15.171875 -16.75 Z M 8.46875 -5.796875 "/></g></g></g><g fill="#ffc947" fill-opacity="1"><g transform="translate(217.139373, 268.026517)"><g><path d="M 2.734375 -16.75 L 4.5 -16.75 L 4.5 -1.53125 L 13.875 -1.53125 L 13.875 0 L 2.734375 0 Z M 2.734375 -16.75 "/></g></g></g><g fill="#ffc947" fill-opacity="1"><g transform="translate(235.056468, 268.026517)"><g><path d="M 2.734375 -16.75 L 4.5 -16.75 L 4.5 0 L 2.734375 0 Z M 2.734375 -16.75 "/></g></g></g><g fill="#ffc947" fill-opacity="1"><g transform="translate(246.108545, 268.026517)"><g><path d="M 16.71875 -16.75 L 16.71875 0 L 15.265625 0 L 4.5 -13.59375 L 4.5 0 L 2.734375 0 L 2.734375 -16.75 L 4.1875 -16.75 L 14.96875 -3.15625 L 14.96875 -16.75 Z M 16.71875 -16.75 "/></g></g></g><g fill="#ffc947" fill-opacity="1"><g transform="translate(269.3837, 268.026517)"><g><path d="M 7.921875 -7.875 L 4.5 -4.40625 L 4.5 0 L 2.734375 0 L 2.734375 -16.75 L 4.5 -16.75 L 4.5 -6.625 L 14.328125 -16.75 L 16.359375 -16.75 L 9.109375 -9.15625 L 16.859375 0 L 14.765625 0 Z M 7.921875 -7.875 "/></g></g></g><g fill="#ffc947" fill-opacity="1"><g transform="translate(68.070838, 294.478493)"><g><path d="M 5.65625 0.078125 C 4.71875 0.078125 3.867188 -0.125 3.109375 -0.53125 C 2.359375 -0.945312 1.769531 -1.519531 1.34375 -2.25 C 0.914062 -2.988281 0.703125 -3.816406 0.703125 -4.734375 C 0.703125 -5.640625 0.914062 -6.457031 1.34375 -7.1875 C 1.769531 -7.925781 2.359375 -8.503906 3.109375 -8.921875 C 3.867188 -9.335938 4.71875 -9.546875 5.65625 -9.546875 C 6.363281 -9.546875 7.015625 -9.425781 7.609375 -9.1875 C 8.203125 -8.957031 8.707031 -8.613281 9.125 -8.15625 L 8.484375 -7.53125 C 7.742188 -8.28125 6.8125 -8.65625 5.6875 -8.65625 C 4.9375 -8.65625 4.253906 -8.484375 3.640625 -8.140625 C 3.035156 -7.796875 2.554688 -7.328125 2.203125 -6.734375 C 1.859375 -6.140625 1.6875 -5.472656 1.6875 -4.734375 C 1.6875 -3.992188 1.859375 -3.328125 2.203125 -2.734375 C 2.554688 -2.140625 3.035156 -1.671875 3.640625 -1.328125 C 4.253906 -0.984375 4.9375 -0.8125 5.6875 -0.8125 C 6.820312 -0.8125 7.753906 -1.191406 8.484375 -1.953125 L 9.125 -1.3125 C 8.707031 -0.863281 8.195312 -0.519531 7.59375 -0.28125 C 7 -0.0390625 6.351562 0.078125 5.65625 0.078125 Z M 5.65625 0.078125 "/></g></g></g><g fill="#ffc947" fill-opacity="1"><g transform="translate(79.94906, 294.478493)"><g><path d="M 8.234375 -0.859375 L 8.234375 0 L 1.546875 0 L 1.546875 -9.46875 L 8.03125 -9.46875 L 8.03125 -8.59375 L 2.546875 -8.59375 L 2.546875 -5.234375 L 7.4375 -5.234375 L 7.4375 -4.375 L 2.546875 -4.375 L 2.546875 -0.859375 Z M 8.234375 -0.859375 "/></g></g></g><g fill="#ffc947" fill-opacity="1"><g transform="translate(91.151669, 294.478493)"><g><path d="M 1.546875 -9.46875 L 2.546875 -9.46875 L 2.546875 -0.859375 L 7.84375 -0.859375 L 7.84375 0 L 1.546875 0 Z M 1.546875 -9.46875 "/></g></g></g><g fill="#ffc947" fill-opacity="1"><g transform="translate(101.273281, 294.478493)"><g><path d="M 8.234375 -0.859375 L 8.234375 0 L 1.546875 0 L 1.546875 -9.46875 L 8.03125 -9.46875 L 8.03125 -8.59375 L 2.546875 -8.59375 L 2.546875 -5.234375 L 7.4375 -5.234375 L 7.4375 -4.375 L 2.546875 -4.375 L 2.546875 -0.859375 Z M 8.234375 -0.859375 "/></g></g></g><g fill="#ffc947" fill-opacity="1"><g transform="translate(112.475891, 294.478493)"><g><path d="M 7.5 -4.875 C 8.125 -4.738281 8.601562 -4.46875 8.9375 -4.0625 C 9.28125 -3.664062 9.453125 -3.15625 9.453125 -2.53125 C 9.453125 -1.71875 9.148438 -1.09375 8.546875 -0.65625 C 7.953125 -0.21875 7.066406 0 5.890625 0 L 1.546875 0 L 1.546875 -9.46875 L 5.625 -9.46875 C 6.675781 -9.46875 7.492188 -9.253906 8.078125 -8.828125 C 8.660156 -8.398438 8.953125 -7.800781 8.953125 -7.03125 C 8.953125 -6.507812 8.820312 -6.066406 8.5625 -5.703125 C 8.300781 -5.335938 7.945312 -5.0625 7.5 -4.875 Z M 2.546875 -8.640625 L 2.546875 -5.203125 L 5.5625 -5.203125 C 6.320312 -5.203125 6.910156 -5.347656 7.328125 -5.640625 C 7.742188 -5.929688 7.953125 -6.359375 7.953125 -6.921875 C 7.953125 -7.484375 7.742188 -7.910156 7.328125 -8.203125 C 6.910156 -8.492188 6.320312 -8.640625 5.5625 -8.640625 Z M 5.875 -0.828125 C 6.726562 -0.828125 7.367188 -0.96875 7.796875 -1.25 C 8.234375 -1.539062 8.453125 -1.992188 8.453125 -2.609375 C 8.453125 -3.785156 7.59375 -4.375 5.875 -4.375 L 2.546875 -4.375 L 2.546875 -0.828125 Z M 5.875 -0.828125 "/></g></g></g><g fill="#ffc947" fill-opacity="1"><g transform="translate(124.827039, 294.478493)"><g><path d="M 8 0 L 5.84375 -3.046875 C 5.59375 -3.015625 5.335938 -3 5.078125 -3 L 2.546875 -3 L 2.546875 0 L 1.546875 0 L 1.546875 -9.46875 L 5.078125 -9.46875 C 6.285156 -9.46875 7.234375 -9.175781 7.921875 -8.59375 C 8.609375 -8.019531 8.953125 -7.226562 8.953125 -6.21875 C 8.953125 -5.476562 8.765625 -4.851562 8.390625 -4.34375 C 8.015625 -3.832031 7.476562 -3.46875 6.78125 -3.25 L 9.09375 0 Z M 5.0625 -3.859375 C 5.988281 -3.859375 6.703125 -4.0625 7.203125 -4.46875 C 7.703125 -4.882812 7.953125 -5.46875 7.953125 -6.21875 C 7.953125 -6.976562 7.703125 -7.5625 7.203125 -7.96875 C 6.703125 -8.382812 5.988281 -8.59375 5.0625 -8.59375 L 2.546875 -8.59375 L 2.546875 -3.859375 Z M 5.0625 -3.859375 "/></g></g></g><g fill="#ffc947" fill-opacity="1"><g transform="translate(136.759311, 294.478493)"><g><path d="M 7.46875 -2.53125 L 2.203125 -2.53125 L 1.0625 0 L 0.03125 0 L 4.359375 -9.46875 L 5.34375 -9.46875 L 9.65625 0 L 8.609375 0 Z M 7.109375 -3.34375 L 4.84375 -8.421875 L 2.5625 -3.34375 Z M 7.109375 -3.34375 "/></g></g></g><g fill="#ffc947" fill-opacity="1"><g transform="translate(148.610503, 294.478493)"><g><path d="M 3.375 -8.59375 L 0.046875 -8.59375 L 0.046875 -9.46875 L 7.703125 -9.46875 L 7.703125 -8.59375 L 4.375 -8.59375 L 4.375 0 L 3.375 0 Z M 3.375 -8.59375 "/></g></g></g><g fill="#ffc947" fill-opacity="1"><g transform="translate(158.529434, 294.478493)"><g><path d="M 1.546875 -9.46875 L 2.546875 -9.46875 L 2.546875 0 L 1.546875 0 Z M 1.546875 -9.46875 "/></g></g></g><g fill="#ffc947" fill-opacity="1"><g transform="translate(164.773007, 294.478493)"><g><path d="M 9.453125 -9.46875 L 9.453125 0 L 8.625 0 L 2.546875 -7.671875 L 2.546875 0 L 1.546875 0 L 1.546875 -9.46875 L 2.359375 -9.46875 L 8.453125 -1.78125 L 8.453125 -9.46875 Z M 9.453125 -9.46875 "/></g></g></g><g fill="#ffc947" fill-opacity="1"><g transform="translate(177.921394, 294.478493)"><g><path d="M 8.203125 -4.734375 L 9.15625 -4.734375 L 9.15625 -1.125 C 8.71875 -0.738281 8.195312 -0.441406 7.59375 -0.234375 C 6.988281 -0.0234375 6.351562 0.078125 5.6875 0.078125 C 4.738281 0.078125 3.882812 -0.125 3.125 -0.53125 C 2.375 -0.945312 1.78125 -1.519531 1.34375 -2.25 C 0.914062 -2.988281 0.703125 -3.816406 0.703125 -4.734375 C 0.703125 -5.640625 0.914062 -6.457031 1.34375 -7.1875 C 1.78125 -7.925781 2.375 -8.503906 3.125 -8.921875 C 3.882812 -9.335938 4.742188 -9.546875 5.703125 -9.546875 C 6.421875 -9.546875 7.082031 -9.429688 7.6875 -9.203125 C 8.289062 -8.972656 8.800781 -8.628906 9.21875 -8.171875 L 8.59375 -7.546875 C 7.84375 -8.285156 6.894531 -8.65625 5.75 -8.65625 C 4.976562 -8.65625 4.285156 -8.484375 3.671875 -8.140625 C 3.054688 -7.804688 2.570312 -7.335938 2.21875 -6.734375 C 1.863281 -6.140625 1.6875 -5.472656 1.6875 -4.734375 C 1.6875 -3.992188 1.863281 -3.328125 2.21875 -2.734375 C 2.570312 -2.140625 3.050781 -1.671875 3.65625 -1.328125 C 4.269531 -0.984375 4.960938 -0.8125 5.734375 -0.8125 C 6.703125 -0.8125 7.523438 -1.054688 8.203125 -1.546875 Z M 8.203125 -4.734375 "/></g></g></g><g fill="#ffc947" fill-opacity="1"><g transform="translate(190.529283, 294.478493)"><g/></g></g><g fill="#ffc947" fill-opacity="1"><g transform="translate(196.232358, 294.478493)"><g><path d="M 11.359375 -9.46875 L 11.359375 0 L 10.40625 0 L 10.40625 -7.5625 L 6.6875 -1.203125 L 6.21875 -1.203125 L 2.5 -7.53125 L 2.5 0 L 1.546875 0 L 1.546875 -9.46875 L 2.359375 -9.46875 L 6.46875 -2.453125 L 10.546875 -9.46875 Z M 11.359375 -9.46875 "/></g></g></g><g fill="#ffc947" fill-opacity="1"><g transform="translate(211.299508, 294.478493)"><g><path d="M 1.546875 -9.46875 L 2.546875 -9.46875 L 2.546875 0 L 1.546875 0 Z M 1.546875 -9.46875 "/></g></g></g><g fill="#ffc947" fill-opacity="1"><g transform="translate(217.543082, 294.478493)"><g><path d="M 1.546875 -9.46875 L 2.546875 -9.46875 L 2.546875 -0.859375 L 7.84375 -0.859375 L 7.84375 0 L 1.546875 0 Z M 1.546875 -9.46875 "/></g></g></g><g fill="#ffc947" fill-opacity="1"><g transform="translate(227.664698, 294.478493)"><g><path d="M 8.234375 -0.859375 L 8.234375 0 L 1.546875 0 L 1.546875 -9.46875 L 8.03125 -9.46875 L 8.03125 -8.59375 L 2.546875 -8.59375 L 2.546875 -5.234375 L 7.4375 -5.234375 L 7.4375 -4.375 L 2.546875 -4.375 L 2.546875 -0.859375 Z M 8.234375 -0.859375 "/></g></g></g><g fill="#ffc947" fill-opacity="1"><g transform="translate(238.867311, 294.478493)"><g><path d="M 4.15625 0.078125 C 3.445312 0.078125 2.769531 -0.03125 2.125 -0.25 C 1.476562 -0.476562 0.984375 -0.78125 0.640625 -1.15625 L 1.03125 -1.921875 C 1.375 -1.578125 1.828125 -1.296875 2.390625 -1.078125 C 2.960938 -0.867188 3.550781 -0.765625 4.15625 -0.765625 C 5 -0.765625 5.628906 -0.921875 6.046875 -1.234375 C 6.472656 -1.546875 6.6875 -1.953125 6.6875 -2.453125 C 6.6875 -2.828125 6.570312 -3.125 6.34375 -3.34375 C 6.113281 -3.570312 5.832031 -3.75 5.5 -3.875 C 5.164062 -4 4.703125 -4.128906 4.109375 -4.265625 C 3.398438 -4.453125 2.832031 -4.628906 2.40625 -4.796875 C 1.976562 -4.960938 1.613281 -5.210938 1.3125 -5.546875 C 1.007812 -5.890625 0.859375 -6.359375 0.859375 -6.953125 C 0.859375 -7.421875 0.984375 -7.851562 1.234375 -8.25 C 1.492188 -8.644531 1.882812 -8.957031 2.40625 -9.1875 C 2.925781 -9.425781 3.578125 -9.546875 4.359375 -9.546875 C 4.890625 -9.546875 5.414062 -9.46875 5.9375 -9.3125 C 6.457031 -9.164062 6.90625 -8.960938 7.28125 -8.703125 L 6.953125 -7.90625 C 6.554688 -8.164062 6.128906 -8.359375 5.671875 -8.484375 C 5.222656 -8.617188 4.785156 -8.6875 4.359375 -8.6875 C 3.523438 -8.6875 2.898438 -8.523438 2.484375 -8.203125 C 2.066406 -7.890625 1.859375 -7.476562 1.859375 -6.96875 C 1.859375 -6.59375 1.972656 -6.289062 2.203125 -6.0625 C 2.429688 -5.832031 2.71875 -5.65625 3.0625 -5.53125 C 3.40625 -5.414062 3.867188 -5.285156 4.453125 -5.140625 C 5.148438 -4.960938 5.710938 -4.789062 6.140625 -4.625 C 6.566406 -4.457031 6.925781 -4.203125 7.21875 -3.859375 C 7.519531 -3.523438 7.671875 -3.070312 7.671875 -2.5 C 7.671875 -2.019531 7.539062 -1.582031 7.28125 -1.1875 C 7.03125 -0.800781 6.640625 -0.492188 6.109375 -0.265625 C 5.578125 -0.0351562 4.925781 0.078125 4.15625 0.078125 Z M 4.15625 0.078125 "/></g></g></g><g fill="#ffc947" fill-opacity="1"><g transform="translate(249.340246, 294.478493)"><g><path d="M 3.375 -8.59375 L 0.046875 -8.59375 L 0.046875 -9.46875 L 7.703125 -9.46875 L 7.703125 -8.59375 L 4.375 -8.59375 L 4.375 0 L 3.375 0 Z M 3.375 -8.59375 "/></g></g></g><g fill="#ffc947" fill-opacity="1"><g transform="translate(259.259176, 294.478493)"><g><path d="M 5.671875 0.078125 C 4.734375 0.078125 3.882812 -0.128906 3.125 -0.546875 C 2.363281 -0.960938 1.769531 -1.535156 1.34375 -2.265625 C 0.914062 -2.992188 0.703125 -3.816406 0.703125 -4.734375 C 0.703125 -5.640625 0.914062 -6.457031 1.34375 -7.1875 C 1.769531 -7.914062 2.363281 -8.488281 3.125 -8.90625 C 3.882812 -9.332031 4.734375 -9.546875 5.671875 -9.546875 C 6.609375 -9.546875 7.453125 -9.335938 8.203125 -8.921875 C 8.960938 -8.503906 9.554688 -7.925781 9.984375 -7.1875 C 10.421875 -6.457031 10.640625 -5.640625 10.640625 -4.734375 C 10.640625 -3.816406 10.421875 -2.988281 9.984375 -2.25 C 9.554688 -1.519531 8.960938 -0.945312 8.203125 -0.53125 C 7.453125 -0.125 6.609375 0.078125 5.671875 0.078125 Z M 5.671875 -0.8125 C 6.421875 -0.8125 7.097656 -0.976562 7.703125 -1.3125 C 8.304688 -1.65625 8.78125 -2.125 9.125 -2.71875 C 9.46875 -3.320312 9.640625 -3.992188 9.640625 -4.734375 C 9.640625 -5.472656 9.46875 -6.140625 9.125 -6.734375 C 8.78125 -7.335938 8.304688 -7.804688 7.703125 -8.140625 C 7.097656 -8.484375 6.421875 -8.65625 5.671875 -8.65625 C 4.929688 -8.65625 4.253906 -8.484375 3.640625 -8.140625 C 3.035156 -7.804688 2.554688 -7.335938 2.203125 -6.734375 C 1.859375 -6.140625 1.6875 -5.472656 1.6875 -4.734375 C 1.6875 -3.992188 1.859375 -3.320312 2.203125 -2.71875 C 2.554688 -2.125 3.035156 -1.65625 3.640625 -1.3125 C 4.253906 -0.976562 4.929688 -0.8125 5.671875 -0.8125 Z M 5.671875 -0.8125 "/></g></g></g><g fill="#ffc947" fill-opacity="1"><g transform="translate(272.758882, 294.478493)"><g><path d="M 9.453125 -9.46875 L 9.453125 0 L 8.625 0 L 2.546875 -7.671875 L 2.546875 0 L 1.546875 0 L 1.546875 -9.46875 L 2.359375 -9.46875 L 8.453125 -1.78125 L 8.453125 -9.46875 Z M 9.453125 -9.46875 "/></g></g></g><g fill="#ffc947" fill-opacity="1"><g transform="translate(285.90727, 294.478493)"><g><path d="M 8.234375 -0.859375 L 8.234375 0 L 1.546875 0 L 1.546875 -9.46875 L 8.03125 -9.46875 L 8.03125 -8.59375 L 2.546875 -8.59375 L 2.546875 -5.234375 L 7.4375 -5.234375 L 7.4375 -4.375 L 2.546875 -4.375 L 2.546875 -0.859375 Z M 8.234375 -0.859375 "/></g></g></g><g fill="#ffc947" fill-opacity="1"><g transform="translate(297.109883, 294.478493)"><g><path d="M 4.15625 0.078125 C 3.445312 0.078125 2.769531 -0.03125 2.125 -0.25 C 1.476562 -0.476562 0.984375 -0.78125 0.640625 -1.15625 L 1.03125 -1.921875 C 1.375 -1.578125 1.828125 -1.296875 2.390625 -1.078125 C 2.960938 -0.867188 3.550781 -0.765625 4.15625 -0.765625 C 5 -0.765625 5.628906 -0.921875 6.046875 -1.234375 C 6.472656 -1.546875 6.6875 -1.953125 6.6875 -2.453125 C 6.6875 -2.828125 6.570312 -3.125 6.34375 -3.34375 C 6.113281 -3.570312 5.832031 -3.75 5.5 -3.875 C 5.164062 -4 4.703125 -4.128906 4.109375 -4.265625 C 3.398438 -4.453125 2.832031 -4.628906 2.40625 -4.796875 C 1.976562 -4.960938 1.613281 -5.210938 1.3125 -5.546875 C 1.007812 -5.890625 0.859375 -6.359375 0.859375 -6.953125 C 0.859375 -7.421875 0.984375 -7.851562 1.234375 -8.25 C 1.492188 -8.644531 1.882812 -8.957031 2.40625 -9.1875 C 2.925781 -9.425781 3.578125 -9.546875 4.359375 -9.546875 C 4.890625 -9.546875 5.414062 -9.46875 5.9375 -9.3125 C 6.457031 -9.164062 6.90625 -8.960938 7.28125 -8.703125 L 6.953125 -7.90625 C 6.554688 -8.164062 6.128906 -8.359375 5.671875 -8.484375 C 5.222656 -8.617188 4.785156 -8.6875 4.359375 -8.6875 C 3.523438 -8.6875 2.898438 -8.523438 2.484375 -8.203125 C 2.066406 -7.890625 1.859375 -7.476562 1.859375 -6.96875 C 1.859375 -6.59375 1.972656 -6.289062 2.203125 -6.0625 C 2.429688 -5.832031 2.71875 -5.65625 3.0625 -5.53125 C 3.40625 -5.414062 3.867188 -5.285156 4.453125 -5.140625 C 5.148438 -4.960938 5.710938 -4.789062 6.140625 -4.625 C 6.566406 -4.457031 6.925781 -4.203125 7.21875 -3.859375 C 7.519531 -3.523438 7.671875 -3.070312 7.671875 -2.5 C 7.671875 -2.019531 7.539062 -1.582031 7.28125 -1.1875 C 7.03125 -0.800781 6.640625 -0.492188 6.109375 -0.265625 C 5.578125 -0.0351562 4.925781 0.078125 4.15625 0.078125 Z M 4.15625 0.078125 "/></g></g></g><g fill="#ffc947" fill-opacity="1"><g transform="translate(307.582818, 294.478493)"><g><path d="M 1.453125 -1.40625 C 1.648438 -1.40625 1.816406 -1.332031 1.953125 -1.1875 C 2.085938 -1.050781 2.15625 -0.878906 2.15625 -0.671875 C 2.15625 -0.566406 2.140625 -0.453125 2.109375 -0.328125 C 2.078125 -0.203125 2.03125 -0.0546875 1.96875 0.109375 L 1.40625 1.96875 L 0.75 1.96875 L 1.21875 0.015625 C 1.070312 -0.0234375 0.953125 -0.109375 0.859375 -0.234375 C 0.773438 -0.359375 0.734375 -0.503906 0.734375 -0.671875 C 0.734375 -0.878906 0.800781 -1.050781 0.9375 -1.1875 C 1.070312 -1.332031 1.242188 -1.40625 1.453125 -1.40625 Z M 1.453125 -1.40625 "/></g></g></g><g fill="#ffc947" fill-opacity="1"><g transform="translate(95.998623, 312.727391)"><g><path d="M 5.65625 0.078125 C 4.71875 0.078125 3.867188 -0.125 3.109375 -0.53125 C 2.359375 -0.945312 1.769531 -1.519531 1.34375 -2.25 C 0.914062 -2.988281 0.703125 -3.816406 0.703125 -4.734375 C 0.703125 -5.640625 0.914062 -6.457031 1.34375 -7.1875 C 1.769531 -7.925781 2.359375 -8.503906 3.109375 -8.921875 C 3.867188 -9.335938 4.71875 -9.546875 5.65625 -9.546875 C 6.363281 -9.546875 7.015625 -9.425781 7.609375 -9.1875 C 8.203125 -8.957031 8.707031 -8.613281 9.125 -8.15625 L 8.484375 -7.53125 C 7.742188 -8.28125 6.8125 -8.65625 5.6875 -8.65625 C 4.9375 -8.65625 4.253906 -8.484375 3.640625 -8.140625 C 3.035156 -7.796875 2.554688 -7.328125 2.203125 -6.734375 C 1.859375 -6.140625 1.6875 -5.472656 1.6875 -4.734375 C 1.6875 -3.992188 1.859375 -3.328125 2.203125 -2.734375 C 2.554688 -2.140625 3.035156 -1.671875 3.640625 -1.328125 C 4.253906 -0.984375 4.9375 -0.8125 5.6875 -0.8125 C 6.820312 -0.8125 7.753906 -1.191406 8.484375 -1.953125 L 9.125 -1.3125 C 8.707031 -0.863281 8.195312 -0.519531 7.59375 -0.28125 C 7 -0.0390625 6.351562 0.078125 5.65625 0.078125 Z M 5.65625 0.078125 "/></g></g></g><g fill="#ffc947" fill-opacity="1"><g transform="translate(107.876844, 312.727391)"><g><path d="M 8 0 L 5.84375 -3.046875 C 5.59375 -3.015625 5.335938 -3 5.078125 -3 L 2.546875 -3 L 2.546875 0 L 1.546875 0 L 1.546875 -9.46875 L 5.078125 -9.46875 C 6.285156 -9.46875 7.234375 -9.175781 7.921875 -8.59375 C 8.609375 -8.019531 8.953125 -7.226562 8.953125 -6.21875 C 8.953125 -5.476562 8.765625 -4.851562 8.390625 -4.34375 C 8.015625 -3.832031 7.476562 -3.46875 6.78125 -3.25 L 9.09375 0 Z M 5.0625 -3.859375 C 5.988281 -3.859375 6.703125 -4.0625 7.203125 -4.46875 C 7.703125 -4.882812 7.953125 -5.46875 7.953125 -6.21875 C 7.953125 -6.976562 7.703125 -7.5625 7.203125 -7.96875 C 6.703125 -8.382812 5.988281 -8.59375 5.0625 -8.59375 L 2.546875 -8.59375 L 2.546875 -3.859375 Z M 5.0625 -3.859375 "/></g></g></g><g fill="#ffc947" fill-opacity="1"><g transform="translate(119.809117, 312.727391)"><g><path d="M 7.46875 -2.53125 L 2.203125 -2.53125 L 1.0625 0 L 0.03125 0 L 4.359375 -9.46875 L 5.34375 -9.46875 L 9.65625 0 L 8.609375 0 Z M 7.109375 -3.34375 L 4.84375 -8.421875 L 2.5625 -3.34375 Z M 7.109375 -3.34375 "/></g></g></g><g fill="#ffc947" fill-opacity="1"><g transform="translate(131.660312, 312.727391)"><g><path d="M 2.546875 -8.59375 L 2.546875 -4.875 L 7.4375 -4.875 L 7.4375 -4.015625 L 2.546875 -4.015625 L 2.546875 0 L 1.546875 0 L 1.546875 -9.46875 L 8.03125 -9.46875 L 8.03125 -8.59375 Z M 2.546875 -8.59375 "/></g></g></g><g fill="#ffc947" fill-opacity="1"><g transform="translate(142.376475, 312.727391)"><g><path d="M 3.375 -8.59375 L 0.046875 -8.59375 L 0.046875 -9.46875 L 7.703125 -9.46875 L 7.703125 -8.59375 L 4.375 -8.59375 L 4.375 0 L 3.375 0 Z M 3.375 -8.59375 "/></g></g></g><g fill="#ffc947" fill-opacity="1"><g transform="translate(152.295401, 312.727391)"><g><path d="M 1.546875 -9.46875 L 2.546875 -9.46875 L 2.546875 0 L 1.546875 0 Z M 1.546875 -9.46875 "/></g></g></g><g fill="#ffc947" fill-opacity="1"><g transform="translate(158.538971, 312.727391)"><g><path d="M 9.453125 -9.46875 L 9.453125 0 L 8.625 0 L 2.546875 -7.671875 L 2.546875 0 L 1.546875 0 L 1.546875 -9.46875 L 2.359375 -9.46875 L 8.453125 -1.78125 L 8.453125 -9.46875 Z M 9.453125 -9.46875 "/></g></g></g><g fill="#ffc947" fill-opacity="1"><g transform="translate(171.68735, 312.727391)"><g><path d="M 8.203125 -4.734375 L 9.15625 -4.734375 L 9.15625 -1.125 C 8.71875 -0.738281 8.195312 -0.441406 7.59375 -0.234375 C 6.988281 -0.0234375 6.351562 0.078125 5.6875 0.078125 C 4.738281 0.078125 3.882812 -0.125 3.125 -0.53125 C 2.375 -0.945312 1.78125 -1.519531 1.34375 -2.25 C 0.914062 -2.988281 0.703125 -3.816406 0.703125 -4.734375 C 0.703125 -5.640625 0.914062 -6.457031 1.34375 -7.1875 C 1.78125 -7.925781 2.375 -8.503906 3.125 -8.921875 C 3.882812 -9.335938 4.742188 -9.546875 5.703125 -9.546875 C 6.421875 -9.546875 7.082031 -9.429688 7.6875 -9.203125 C 8.289062 -8.972656 8.800781 -8.628906 9.21875 -8.171875 L 8.59375 -7.546875 C 7.84375 -8.285156 6.894531 -8.65625 5.75 -8.65625 C 4.976562 -8.65625 4.285156 -8.484375 3.671875 -8.140625 C 3.054688 -7.804688 2.570312 -7.335938 2.21875 -6.734375 C 1.863281 -6.140625 1.6875 -5.472656 1.6875 -4.734375 C 1.6875 -3.992188 1.863281 -3.328125 2.21875 -2.734375 C 2.570312 -2.140625 3.050781 -1.671875 3.65625 -1.328125 C 4.269531 -0.984375 4.960938 -0.8125 5.734375 -0.8125 C 6.703125 -0.8125 7.523438 -1.054688 8.203125 -1.546875 Z M 8.203125 -4.734375 "/></g></g></g><g fill="#ffc947" fill-opacity="1"><g transform="translate(184.295239, 312.727391)"><g/></g></g><g fill="#ffc947" fill-opacity="1"><g transform="translate(189.998313, 312.727391)"><g><path d="M 11.359375 -9.46875 L 11.359375 0 L 10.40625 0 L 10.40625 -7.5625 L 6.6875 -1.203125 L 6.21875 -1.203125 L 2.5 -7.53125 L 2.5 0 L 1.546875 0 L 1.546875 -9.46875 L 2.359375 -9.46875 L 6.46875 -2.453125 L 10.546875 -9.46875 Z M 11.359375 -9.46875 "/></g></g></g><g fill="#ffc947" fill-opacity="1"><g transform="translate(205.065464, 312.727391)"><g><path d="M 8.234375 -0.859375 L 8.234375 0 L 1.546875 0 L 1.546875 -9.46875 L 8.03125 -9.46875 L 8.03125 -8.59375 L 2.546875 -8.59375 L 2.546875 -5.234375 L 7.4375 -5.234375 L 7.4375 -4.375 L 2.546875 -4.375 L 2.546875 -0.859375 Z M 8.234375 -0.859375 "/></g></g></g><g fill="#ffc947" fill-opacity="1"><g transform="translate(216.268078, 312.727391)"><g><path d="M 11.359375 -9.46875 L 11.359375 0 L 10.40625 0 L 10.40625 -7.5625 L 6.6875 -1.203125 L 6.21875 -1.203125 L 2.5 -7.53125 L 2.5 0 L 1.546875 0 L 1.546875 -9.46875 L 2.359375 -9.46875 L 6.46875 -2.453125 L 10.546875 -9.46875 Z M 11.359375 -9.46875 "/></g></g></g><g fill="#ffc947" fill-opacity="1"><g transform="translate(231.335228, 312.727391)"><g><path d="M 5.671875 0.078125 C 4.734375 0.078125 3.882812 -0.128906 3.125 -0.546875 C 2.363281 -0.960938 1.769531 -1.535156 1.34375 -2.265625 C 0.914062 -2.992188 0.703125 -3.816406 0.703125 -4.734375 C 0.703125 -5.640625 0.914062 -6.457031 1.34375 -7.1875 C 1.769531 -7.914062 2.363281 -8.488281 3.125 -8.90625 C 3.882812 -9.332031 4.734375 -9.546875 5.671875 -9.546875 C 6.609375 -9.546875 7.453125 -9.335938 8.203125 -8.921875 C 8.960938 -8.503906 9.554688 -7.925781 9.984375 -7.1875 C 10.421875 -6.457031 10.640625 -5.640625 10.640625 -4.734375 C 10.640625 -3.816406 10.421875 -2.988281 9.984375 -2.25 C 9.554688 -1.519531 8.960938 -0.945312 8.203125 -0.53125 C 7.453125 -0.125 6.609375 0.078125 5.671875 0.078125 Z M 5.671875 -0.8125 C 6.421875 -0.8125 7.097656 -0.976562 7.703125 -1.3125 C 8.304688 -1.65625 8.78125 -2.125 9.125 -2.71875 C 9.46875 -3.320312 9.640625 -3.992188 9.640625 -4.734375 C 9.640625 -5.472656 9.46875 -6.140625 9.125 -6.734375 C 8.78125 -7.335938 8.304688 -7.804688 7.703125 -8.140625 C 7.097656 -8.484375 6.421875 -8.65625 5.671875 -8.65625 C 4.929688 -8.65625 4.253906 -8.484375 3.640625 -8.140625 C 3.035156 -7.804688 2.554688 -7.335938 2.203125 -6.734375 C 1.859375 -6.140625 1.6875 -5.472656 1.6875 -4.734375 C 1.6875 -3.992188 1.859375 -3.320312 2.203125 -2.71875 C 2.554688 -2.125 3.035156 -1.65625 3.640625 -1.3125 C 4.253906 -0.976562 4.929688 -0.8125 5.671875 -0.8125 Z M 5.671875 -0.8125 "/></g></g></g><g fill="#ffc947" fill-opacity="1"><g transform="translate(244.834934, 312.727391)"><g><path d="M 8 0 L 5.84375 -3.046875 C 5.59375 -3.015625 5.335938 -3 5.078125 -3 L 2.546875 -3 L 2.546875 0 L 1.546875 0 L 1.546875 -9.46875 L 5.078125 -9.46875 C 6.285156 -9.46875 7.234375 -9.175781 7.921875 -8.59375 C 8.609375 -8.019531 8.953125 -7.226562 8.953125 -6.21875 C 8.953125 -5.476562 8.765625 -4.851562 8.390625 -4.34375 C 8.015625 -3.832031 7.476562 -3.46875 6.78125 -3.25 L 9.09375 0 Z M 5.0625 -3.859375 C 5.988281 -3.859375 6.703125 -4.0625 7.203125 -4.46875 C 7.703125 -4.882812 7.953125 -5.46875 7.953125 -6.21875 C 7.953125 -6.976562 7.703125 -7.5625 7.203125 -7.96875 C 6.703125 -8.382812 5.988281 -8.59375 5.0625 -8.59375 L 2.546875 -8.59375 L 2.546875 -3.859375 Z M 5.0625 -3.859375 "/></g></g></g><g fill="#ffc947" fill-opacity="1"><g transform="translate(256.767211, 312.727391)"><g><path d="M 1.546875 -9.46875 L 2.546875 -9.46875 L 2.546875 0 L 1.546875 0 Z M 1.546875 -9.46875 "/></g></g></g><g fill="#ffc947" fill-opacity="1"><g transform="translate(263.010784, 312.727391)"><g><path d="M 8.234375 -0.859375 L 8.234375 0 L 1.546875 0 L 1.546875 -9.46875 L 8.03125 -9.46875 L 8.03125 -8.59375 L 2.546875 -8.59375 L 2.546875 -5.234375 L 7.4375 -5.234375 L 7.4375 -4.375 L 2.546875 -4.375 L 2.546875 -0.859375 Z M 8.234375 -0.859375 "/></g></g></g><g fill="#ffc947" fill-opacity="1"><g transform="translate(274.213398, 312.727391)"><g><path d="M 4.15625 0.078125 C 3.445312 0.078125 2.769531 -0.03125 2.125 -0.25 C 1.476562 -0.476562 0.984375 -0.78125 0.640625 -1.15625 L 1.03125 -1.921875 C 1.375 -1.578125 1.828125 -1.296875 2.390625 -1.078125 C 2.960938 -0.867188 3.550781 -0.765625 4.15625 -0.765625 C 5 -0.765625 5.628906 -0.921875 6.046875 -1.234375 C 6.472656 -1.546875 6.6875 -1.953125 6.6875 -2.453125 C 6.6875 -2.828125 6.570312 -3.125 6.34375 -3.34375 C 6.113281 -3.570312 5.832031 -3.75 5.5 -3.875 C 5.164062 -4 4.703125 -4.128906 4.109375 -4.265625 C 3.398438 -4.453125 2.832031 -4.628906 2.40625 -4.796875 C 1.976562 -4.960938 1.613281 -5.210938 1.3125 -5.546875 C 1.007812 -5.890625 0.859375 -6.359375 0.859375 -6.953125 C 0.859375 -7.421875 0.984375 -7.851562 1.234375 -8.25 C 1.492188 -8.644531 1.882812 -8.957031 2.40625 -9.1875 C 2.925781 -9.425781 3.578125 -9.546875 4.359375 -9.546875 C 4.890625 -9.546875 5.414062 -9.46875 5.9375 -9.3125 C 6.457031 -9.164062 6.90625 -8.960938 7.28125 -8.703125 L 6.953125 -7.90625 C 6.554688 -8.164062 6.128906 -8.359375 5.671875 -8.484375 C 5.222656 -8.617188 4.785156 -8.6875 4.359375 -8.6875 C 3.523438 -8.6875 2.898438 -8.523438 2.484375 -8.203125 C 2.066406 -7.890625 1.859375 -7.476562 1.859375 -6.96875 C 1.859375 -6.59375 1.972656 -6.289062 2.203125 -6.0625 C 2.429688 -5.832031 2.71875 -5.65625 3.0625 -5.53125 C 3.40625 -5.414062 3.867188 -5.285156 4.453125 -5.140625 C 5.148438 -4.960938 5.710938 -4.789062 6.140625 -4.625 C 6.566406 -4.457031 6.925781 -4.203125 7.21875 -3.859375 C 7.519531 -3.523438 7.671875 -3.070312 7.671875 -2.5 C 7.671875 -2.019531 7.539062 -1.582031 7.28125 -1.1875 C 7.03125 -0.800781 6.640625 -0.492188 6.109375 -0.265625 C 5.578125 -0.0351562 4.925781 0.078125 4.15625 0.078125 Z M 4.15625 0.078125 "/></g></g></g></svg>